<svg id="Layer_1" data-name="Layer 1" xmlns="http://www.w3.org/2000/svg" viewBox="0 0 378.3 239.55"><title>Itel Mobile logo - Brandlogos.net</title><path d="M410.79,358.6c-12,0-22.39,8-25.59,17.6h44C429.19,365.8,422,358.6,410.79,358.6Z" transform="translate(-194.85 -264.22)" style="fill:#ff073c"/><path d="M383.6,264.22c-104,0-188.75,43.19-188.75,108,0,41.59,35.19,78.38,88,99.17l-5.6,30.39c154.36,12.8,295.92-36,295.92-128C572.35,296.22,468.38,264.22,383.6,264.22ZM364.41,339.4l-4.8,23.19h-20l-6.4,33.59c-1.6,9.6,2.4,16,11.2,16H350l-4.8,23.19h-6.4c-25.59,0-35.19-16.8-31.19-39.19l15.2-78.38h25.59l-4,22.39h20Zm38.39,74.38c8.8,0,14.4-3.2,19.19-9.6h26.39c-8,19.19-25.59,29.59-47.19,29.59-29.59,0-47.19-24-40.79-54.39,4.8-25.59,24-40.79,51.19-40.79,32.79,0,49.59,24.79,40,56.78H382.8C382,406.59,390.8,413.78,402.8,413.78ZM308.42,339.4H282.83l4-22.39h25.59Zm-1.6,9.6L290,433.78H264.43L281.23,349Zm191.95,84.78h-6.4c-24,0-35.19-15.2-31.19-39.19l15.2-78.38H502l-15.2,79.18c-1.6,9.6,2.4,16,11.2,16h5.6Z" transform="translate(-194.85 -264.22)" style="fill:#ff073c"/><path d="M401.2,433.78c21.59,0,39.19-10.4,47.19-29.59H422c-4.8,6.4-10.4,9.6-19.19,9.6-11.2,0-20-8-20.79-18.4h68.78c10.4-32-6.4-56.79-40-56.79-27.19,0-46.39,15.2-51.19,40.79C354,410.58,371.6,433.78,401.2,433.78Zm9.6-75.18c12,0,19.19,7.2,19.19,17.6H386C388.4,366.6,398,358.6,410.79,358.6Z" transform="translate(-194.85 -264.22)" style="fill:#fff"/><path d="M338.81,433.78h6.4l4.8-23.19h-5.6c-8.8,0-12.8-6.4-11.2-16l6.4-33.59h20l4.8-23.19h-20l4-22.39H322.82l-15.2,78.38C303.62,417,313.22,433.78,338.81,433.78Z" transform="translate(-194.85 -264.22)" style="fill:#fff"/><path d="M491.57,433.78h7.2l4.8-23.19H498c-8.8,0-13.6-6.4-11.2-16L502,315.41H476.38l-15.2,78.38C456.38,418.58,467.58,433.78,491.57,433.78Z" transform="translate(-194.85 -264.22)" style="fill:#fff"/><path d="M313.22,316.21H287.63l-4,23.19h24.79Z" transform="translate(-194.85 -264.22)" style="fill:#fff"/><path d="M306.82,349H281.23l-16.8,84.78H290Z" transform="translate(-194.85 -264.22)" style="fill:#fff"/></svg>